<svg version="1.2" xmlns="http://www.w3.org/2000/svg" viewBox="0 0 738 106" width="738" height="106"><style>.a{fill:#fff}</style><path class="a" d="m141.2 66.3c0-18.3-14.8-33.1-33.1-33.1h-55c-1.9 4.2-3 8.9-3 13.8 0 18.3 14.8 33.1 33.1 33.1h54.9c2-4.2 3.1-8.9 3.1-13.8z"/><path class="a" d="m149.5 13.8h-66.2c-12 0-22.5 6.4-28.3 15.9h53.1c20.2 0 36.6 16.4 36.6 36.6q0 7.2-2.7 13.8h7.6c18.3 0 33.1-14.8 33.1-33.1 0-18.3-14.9-33.2-33.2-33.2z"/><path class="a" d="m46.6 46.9q0-7.2 2.7-13.8h-7.6c-18.2 0.1-33.1 14.9-33.1 33.2 0 18.3 14.8 33.1 33.1 33.1h66.3c12 0 22.4-6.4 28.3-15.9h-53c-20.2 0.1-36.7-16.4-36.7-36.6z"/><path class="a" d="m283.1 46.7c0 20.5-13.1 34.7-31.3 34.7-9.1 0-16.8-3.5-22.1-9.1 0.3 4.6 0.3 9.9 0.3 15.6v11.6h-16v-85.3h10.9l3.1 10c5.4-7.2 13.7-11.6 23.8-11.6 18 0 31.3 14.4 31.3 34.1zm-16.4 0.4c0-12.2-7.4-20.5-18.4-20.5-11 0-19 8.1-19 20.2 0 12.1 7.8 20.6 19 20.6 11.2 0 18.4-8.3 18.4-20.3z"/><path class="a" d="m288.1 47c0-21.5 15.7-34.6 34.6-34.6 9.6 0 17.5 2.8 24.4 8.8l-7.8 10.8c-4.7-4-9.1-5.6-15.5-5.6-11 0-19.6 8.1-19.6 20.6 0 12.5 8.7 20.6 19.3 20.6 7.1 0 11.9-2.2 16.8-6.8l8.1 10.7c-7.4 6.8-14.9 10.2-26.5 10.2-16.6 0-33.8-11.8-33.8-34.7z"/><path class="a" d="m423.3 46.7c0 20.5-13.1 34.7-31.3 34.7-9.1 0-16.8-3.5-22.1-9.1 0.3 4.6 0.3 9.9 0.3 15.6v11.6h-16v-85.3h10.9l3.1 10c5.4-7.2 13.7-11.6 23.8-11.6 18 0 31.3 14.4 31.3 34.1zm-16.3 0.4c0-12.2-7.4-20.5-18.4-20.5-11 0-19 8.1-19 20.2 0 12.1 7.8 20.6 19 20.6 11.2 0 18.4-8.3 18.4-20.3z"/><path class="a" d="m484.2 37.4v42.4h-10.7l-2.9-9.9c-4.9 6.9-12.6 11.2-23.4 11.2-12.1 0-20.6-6.8-20.6-18.4 0-15 13.2-23.2 33.2-23.2 3.4 0 5.9 0.2 8.2 0.3v-2.9c0-6.8-5-10.1-13.4-10.1-6.5 0-13.7 2.1-20.5 5.3l-4.5-12.3c9.7-4.4 18.7-6.8 27.5-6.8 16.8 0 27.1 8.5 27.1 24.4zm-15.7 12.8c-2.6-0.3-4.7-0.4-7.6-0.4-11.6 0-18.4 4.1-18.4 11.3 0 5.2 3.5 7.9 9.4 7.9 9.4 0.1 16.3-6.8 16.6-18.8z"/><path class="a" d="m658.3 46.7c0 20.5-13.1 34.7-31.3 34.7-9.1 0-16.8-3.5-22.1-9.1 0.3 4.6 0.3 9.9 0.3 15.6v11.6h-16v-85.3h10.9l3.1 10c5.4-7.2 13.7-11.6 23.8-11.6 18 0 31.3 14.4 31.3 34.1zm-16.4 0.4c0-12.2-7.4-20.5-18.4-20.5-11 0-19 8.1-19 20.2 0 12.1 7.8 20.6 19 20.6 11.2 0 18.4-8.3 18.4-20.3z"/><path class="a" d="m733.1 46.7c0 20.5-13.1 34.7-31.3 34.7-9.1 0-16.8-3.5-22.1-9.1 0.3 4.6 0.3 9.9 0.3 15.6v11.6h-16v-85.3h10.9l3.1 10c5.4-7.2 13.7-11.6 23.8-11.6 18.1 0 31.4 14.4 31.3 34.1zm-16.3 0.4c0-12.2-7.4-20.5-18.4-20.5-11 0-19 8.1-19 20.2 0 12.1 7.8 20.6 19 20.6 11.2 0 18.4-8.3 18.4-20.3z"/><path class="a" d="m581.4 37.4v42.4h-10.7l-2.9-9.9c-4.9 6.9-12.7 11.2-23.4 11.2-12.1 0-20.6-6.8-20.6-18.4 0-15 13.2-23.2 33.2-23.2 3.4 0 5.9 0.2 8.2 0.3v-2.9c0-6.8-5-10.1-13.4-10.1-6.5 0-13.7 2.1-20.5 5.3l-4.6-12.2c9.7-4.4 18.7-6.8 27.5-6.8 16.9-0.1 27.2 8.4 27.2 24.3zm-15.7 12.8c-2.7-0.3-4.7-0.4-7.7-0.4-11.6 0-18.4 4.1-18.4 11.3 0 5.2 3.5 7.9 9.4 7.9 9.5 0.1 16.4-6.8 16.7-18.8z"/><path class="a" d="m512.8 47.6c0 5-4 9-9 9-5 0-9-4-9-9 0-5 4-9 9-9 5 0 9 4 9 9z"/><path class="a" d="m751.9 43.3v-25.9h2.9v3h0.3c0.2-0.3 0.5-0.8 0.9-1.3 0.4-0.5 0.9-1 1.6-1.4 0.7-0.4 1.7-0.6 2.9-0.6 1.6 0 3 0.4 4.1 1.2 1.1 0.8 2.1 1.9 2.8 3.4 0.7 1.5 1 3.2 1 5.2 0 2-0.3 3.7-1 5.2-0.7 1.5-1.6 2.6-2.8 3.4-1.2 0.8-2.6 1.2-4.1 1.2-1.2 0-2.1-0.2-2.9-0.6-0.8-0.4-1.3-0.9-1.7-1.4-0.4-0.5-0.7-1-0.9-1.3h-0.2v9.9zm8.3-9.4c1.2 0 2.2-0.3 3-1 0.8-0.6 1.4-1.5 1.8-2.6q0.6-1.7 0.6-3.6c0-1.3-0.2-2.5-0.6-3.5-0.4-1-1-1.9-1.8-2.5q-1.2-0.9-3-0.9c-1.7 0-3 0.6-3.9 1.9-0.9 1.3-1.3 3-1.3 5 0 2.1 0.5 3.8 1.4 5.1 0.8 1.5 2.1 2.1 3.8 2.1z"/><path class="a" d="m778.6 36.7c-1.2 0-2.3-0.2-3.2-0.7-0.9-0.5-1.7-1.1-2.3-2-0.6-0.9-0.9-1.9-0.9-3.1 0-1.1 0.2-2 0.6-2.6 0.4-0.7 1-1.2 1.7-1.6q1.1-0.6 2.4-0.9c0.9-0.2 1.7-0.3 2.6-0.5 1.1-0.1 2-0.3 2.7-0.3 0.7-0.1 1.2-0.2 1.6-0.4 0.3-0.2 0.5-0.5 0.5-1v-0.1c0-1.2-0.3-2.1-1-2.7-0.7-0.6-1.6-1-2.9-1-1.4 0-2.4 0.3-3.2 0.9-0.8 0.6-1.3 1.2-1.6 1.9l-2.9-1c0.5-1.1 1.1-2 2-2.7 0.8-0.6 1.7-1.1 2.7-1.4 1-0.3 2-0.4 2.9-0.4 0.6 0 1.3 0.1 2.1 0.2 0.8 0.1 1.6 0.5 2.3 0.9 0.7 0.4 1.4 1.1 1.9 2 0.5 0.9 0.7 2.1 0.7 3.5v12.4h-3v-2.6h-0.2c-0.2 0.4-0.6 0.9-1 1.4q-0.7 0.7-1.8 1.2-1 0.6-2.7 0.6zm0.5-2.7c1.1 0 2.1-0.2 2.8-0.7 0.8-0.4 1.4-1 1.8-1.7 0.4-0.7 0.6-1.4 0.6-2.2v-2.6c-0.1 0.1-0.4 0.3-0.8 0.4-0.4 0.1-0.9 0.2-1.4 0.3-0.5 0.1-1 0.2-1.5 0.2-0.5 0-0.9 0.1-1.2 0.1-0.7 0.1-1.4 0.2-2 0.5-0.6 0.3-1.1 0.5-1.5 1-0.4 0.4-0.6 1-0.6 1.7 0 1 0.4 1.7 1.1 2.2 0.7 0.5 1.6 0.8 2.7 0.8z"/><path class="a" d="m795.7 24.9v11.3h-3v-18.8h2.9v3.5c0.6-1.3 1.4-2.3 2.4-2.9 1-0.6 2.1-0.9 3.4-0.9 1.9 0 3.4 0.6 4.6 1.8 1.2 1.2 1.7 3 1.7 5.3v11.9h-3v-11.6c0-1.4-0.4-2.6-1.1-3.4-0.8-0.8-1.8-1.2-3.1-1.2-1.4 0-2.5 0.4-3.4 1.3-0.9 0.9-1.4 2.1-1.4 3.7z"/><path class="a" d="m823.8 24.1v2.8h-11v-2.8z"/><path class="a" d="m839.4 36.6c-2.1 0-4.1-0.5-5.7-1.6-1.7-1-3-2.5-4-4.4-1-1.9-1.4-4.2-1.4-6.9 0-2.7 0.5-4.9 1.4-6.9 1-1.9 2.3-3.4 4-4.4 1.7-1 3.6-1.6 5.7-1.6 1.7 0 3.2 0.3 4.7 1 1.4 0.7 2.6 1.6 3.6 2.8 1 1.2 1.6 2.7 1.9 4.4h-3.2c-0.2-1.1-0.7-2.1-1.4-2.9-0.7-0.8-1.5-1.4-2.5-1.8-1-0.4-2-0.6-3.1-0.6-1.5 0-2.9 0.4-4.1 1.1-1.2 0.8-2.2 1.9-2.9 3.4-0.7 1.5-1.1 3.3-1.1 5.4 0 2.1 0.4 3.9 1.1 5.4 0.7 1.5 1.7 2.6 2.9 3.3 1.2 0.7 2.6 1.1 4.1 1.1 1.1 0 2.1-0.2 3.1-0.6 1-0.4 1.8-1 2.5-1.8 0.7-0.8 1.1-1.7 1.4-2.9h3.2c-0.3 1.7-0.9 3.2-1.9 4.4-0.9 1.2-2.1 2.2-3.5 2.8-1.5 0.9-3.1 1.3-4.8 1.3z"/><path class="a" d="m859.3 36.7c-1.2 0-2.3-0.2-3.2-0.7-1-0.4-1.7-1.1-2.3-2-0.6-0.9-0.9-1.9-0.9-3.1 0-1.1 0.2-2 0.6-2.6 0.4-0.6 1-1.2 1.7-1.6q1.1-0.6 2.4-0.9c0.9-0.2 1.7-0.3 2.6-0.5 1.1-0.1 2-0.3 2.7-0.3 0.7 0 1.2-0.2 1.6-0.4 0.3-0.2 0.5-0.5 0.5-1v-0.1c0-1.2-0.3-2.1-1-2.7-0.7-0.6-1.6-1-2.9-1-1.4 0-2.4 0.3-3.2 0.9-0.8 0.6-1.3 1.2-1.6 1.9l-2.9-1c0.5-1.1 1.1-2 2-2.7 0.8-0.6 1.7-1.1 2.7-1.4 1-0.3 2-0.4 2.9-0.4 0.6 0 1.3 0.1 2.1 0.2 0.8 0.1 1.6 0.5 2.3 0.9 0.7 0.4 1.4 1.1 1.9 2 0.5 0.9 0.7 2.1 0.7 3.5v12.4h-3v-2.6h-0.2c-0.2 0.4-0.6 0.9-1 1.4q-0.7 0.7-1.8 1.2-1.1 0.6-2.7 0.6zm0.5-2.7c1.1 0 2.1-0.2 2.8-0.7 0.8-0.4 1.4-1 1.8-1.7 0.4-0.7 0.6-1.4 0.6-2.2v-2.6c-0.1 0.1-0.4 0.3-0.8 0.4-0.4 0.1-0.9 0.2-1.4 0.3-0.5 0.1-1 0.2-1.5 0.2-0.5 0-0.9 0.1-1.2 0.1-0.7 0.1-1.4 0.2-2 0.5-0.6 0.2-1.1 0.5-1.5 1-0.4 0.4-0.6 1-0.6 1.7 0 1 0.4 1.7 1.1 2.2 0.7 0.5 1.6 0.8 2.7 0.8z"/><path class="a" d="m876.4 24.9v11.3h-3v-18.8h2.9v3.5c0.6-1.3 1.4-2.3 2.4-2.9 1-0.6 2.1-0.9 3.4-0.9 1.9 0 3.4 0.6 4.6 1.8 1.2 1.2 1.7 3 1.7 5.3v11.9h-3v-11.6c0-1.4-0.4-2.6-1.1-3.4-0.8-0.8-1.8-1.2-3.1-1.2-1.4 0-2.5 0.4-3.4 1.3-0.9 0.9-1.4 2.1-1.4 3.7z"/><path class="a" d="m899 36.7c-1.2 0-2.3-0.2-3.2-0.7-1-0.4-1.7-1.1-2.3-2-0.6-0.9-0.9-1.9-0.9-3.1 0-1.1 0.2-2 0.6-2.6 0.4-0.6 1-1.2 1.7-1.6q1.1-0.6 2.4-0.9c0.9-0.2 1.7-0.3 2.6-0.5 1.1-0.1 2-0.3 2.7-0.3 0.7 0 1.2-0.2 1.6-0.4 0.3-0.2 0.5-0.5 0.5-1v-0.1c0-1.2-0.3-2.1-1-2.7-0.7-0.6-1.6-1-2.9-1-1.4 0-2.4 0.3-3.2 0.9-0.8 0.6-1.3 1.2-1.6 1.9l-2.9-1c0.5-1.1 1.1-2 2-2.7 0.8-0.6 1.7-1.1 2.7-1.4 1-0.3 2-0.4 2.9-0.4 0.6 0 1.3 0.1 2.1 0.2 0.8 0.1 1.6 0.5 2.3 0.9 0.7 0.4 1.4 1.1 1.9 2 0.5 0.9 0.7 2.1 0.7 3.5v12.4h-3v-2.6h-0.2c-0.2 0.4-0.6 0.9-1 1.4q-0.7 0.7-1.8 1.2-1.1 0.6-2.7 0.6zm0.5-2.7c1.1 0 2.1-0.2 2.8-0.7 0.8-0.4 1.4-1 1.8-1.7 0.4-0.7 0.6-1.4 0.6-2.2v-2.6c-0.1 0.1-0.4 0.3-0.8 0.4-0.4 0.1-0.9 0.2-1.4 0.3-0.5 0.1-1 0.2-1.5 0.2-0.5 0-0.9 0.1-1.2 0.1-0.7 0.1-1.4 0.2-2 0.5-0.6 0.2-1.1 0.5-1.5 1-0.4 0.4-0.6 1-0.6 1.7 0 1 0.4 1.7 1.1 2.2 0.7 0.5 1.6 0.8 2.7 0.8z"/><path class="a" d="m920.1 36.6c-1.6 0-2.9-0.4-4.1-1.2-1.2-0.8-2.1-1.9-2.8-3.4-0.7-1.5-1-3.2-1-5.2 0-2 0.3-3.7 1-5.2 0.7-1.5 1.6-2.6 2.8-3.4 1.2-0.8 2.6-1.2 4.1-1.2 1.2 0 2.2 0.2 2.9 0.6 0.7 0.4 1.3 0.9 1.7 1.4 0.4 0.5 0.7 0.9 0.9 1.3h0.2v-9.3h3v25.1h-2.9v-2.9h-0.3c-0.2 0.3-0.5 0.8-0.9 1.3-0.4 0.5-1 1-1.7 1.4-0.7 0.4-1.7 0.7-2.9 0.7zm0.5-2.7c1.7 0 3-0.7 3.9-2 0.9-1.3 1.4-3 1.4-5.1 0-2.1-0.4-3.8-1.3-5-0.9-1.2-2.2-1.9-3.9-1.9q-1.8 0-3 0.9c-0.8 0.6-1.4 1.4-1.8 2.5-0.4 1.1-0.6 2.2-0.6 3.5q0 1.9 0.6 3.6c0.4 1.1 1 1.9 1.8 2.6 0.8 0.6 1.7 0.9 2.9 0.9z"/><path class="a" d="m935.7 14.3q-0.9 0-1.5-0.6c-0.4-0.4-0.6-0.9-0.6-1.4 0-0.6 0.2-1 0.6-1.4q0.6-0.6 1.5-0.6 0.9 0 1.5 0.6c0.4 0.4 0.6 0.9 0.6 1.4 0 0.5-0.2 1-0.6 1.4q-0.6 0.6-1.5 0.6zm-1.5 21.9v-18.8h3v18.8z"/><path class="a" d="m947.8 36.7c-1.2 0-2.3-0.2-3.2-0.7-0.9-0.5-1.7-1.1-2.3-2-0.6-0.9-0.9-1.9-0.9-3.1 0-1.1 0.2-2 0.6-2.6 0.4-0.7 1-1.2 1.7-1.6q1.1-0.6 2.4-0.9c0.9-0.2 1.7-0.3 2.6-0.5 1.1-0.1 2-0.3 2.7-0.3 0.7-0.1 1.2-0.2 1.6-0.4 0.3-0.2 0.5-0.5 0.5-1v-0.1c0-1.2-0.3-2.1-1-2.7-0.7-0.6-1.6-1-2.9-1-1.4 0-2.4 0.3-3.2 0.9-0.8 0.6-1.3 1.2-1.6 1.9l-2.9-1c0.5-1.1 1.1-2 2-2.7 0.8-0.6 1.7-1.1 2.7-1.4 1-0.3 2-0.4 2.9-0.4 0.6 0 1.3 0.1 2.1 0.2 0.8 0.1 1.6 0.5 2.3 0.9 0.7 0.4 1.4 1.1 1.9 2 0.5 0.9 0.7 2.1 0.7 3.5v12.4h-3v-2.6h-0.2c-0.2 0.4-0.6 0.9-1 1.4q-0.7 0.7-1.8 1.2-1.1 0.6-2.7 0.6zm0.5-2.7c1.1 0 2.1-0.2 2.8-0.7 0.8-0.4 1.4-1 1.8-1.7 0.4-0.7 0.6-1.4 0.6-2.2v-2.6c-0.1 0.1-0.4 0.3-0.8 0.4-0.4 0.1-0.9 0.2-1.4 0.3-0.5 0.1-1 0.2-1.5 0.2-0.5 0-0.9 0.1-1.2 0.1-0.7 0.1-1.4 0.2-2 0.5-0.6 0.3-1.1 0.5-1.5 1-0.4 0.4-0.6 1-0.6 1.7 0 1 0.4 1.7 1.1 2.2 0.7 0.5 1.6 0.8 2.7 0.8z"/><path class="a" d="m964.9 24.9v11.3h-3v-18.8h2.9v3.5c0.6-1.3 1.4-2.3 2.4-2.9 1-0.6 2.1-0.9 3.4-0.9 1.9 0 3.4 0.6 4.6 1.8 1.2 1.2 1.7 3 1.7 5.3v11.9h-3v-11.6c0-1.4-0.4-2.6-1.1-3.4-0.8-0.8-1.8-1.2-3.1-1.2-1.4 0-2.5 0.4-3.4 1.3-0.9 0.9-1.4 2.1-1.4 3.7z"/><path class="a" d="m992.3 36.2v-25h8.6c2 0 3.6 0.4 4.8 1.1 1.3 0.7 2.2 1.7 2.8 2.9 0.6 1.2 0.9 2.5 0.9 4 0 1.5-0.3 2.8-0.9 4.1-0.6 1.2-1.5 2.2-2.8 2.9-1.3 0.7-2.9 1.1-4.8 1.1h-5.4v9.1h-3.2zm3.2-11.9h5.2q3 0 4.2-1.5c0.8-1 1.3-2.2 1.3-3.7 0-1.5-0.4-2.7-1.3-3.7-0.8-1-2.3-1.5-4.3-1.5h-5.2v10.4z"/><path class="a" d="m1017 24.9v11.3h-3v-25h3v9.5q0.9-1.9 2.4-2.7c1-0.5 2.1-0.8 3.3-0.8 1.9 0 3.4 0.6 4.6 1.8 1.2 1.2 1.8 3 1.8 5.3v11.9h-3v-11.7c0-1.4-0.4-2.6-1.1-3.4-0.8-0.8-1.8-1.2-3.1-1.2-1.4 0-2.5 0.4-3.4 1.3-1.1 0.9-1.5 2.1-1.5 3.7z"/><path class="a" d="m1039.6 36.7c-1.2 0-2.3-0.2-3.2-0.7-1-0.4-1.7-1.1-2.3-2-0.6-0.9-0.9-1.9-0.9-3.1 0-1.1 0.2-2 0.6-2.6 0.4-0.6 1-1.2 1.7-1.6q1-0.6 2.4-0.9c0.9-0.2 1.7-0.3 2.6-0.5 1.1-0.1 2-0.3 2.7-0.3 0.7 0 1.2-0.2 1.6-0.4 0.3-0.2 0.5-0.5 0.5-1v-0.1c0-1.2-0.3-2.1-1-2.7-0.7-0.6-1.6-1-2.9-1-1.4 0-2.4 0.3-3.2 0.9-0.8 0.6-1.3 1.2-1.6 1.9l-2.9-1c0.5-1.1 1.1-2 2-2.7 0.8-0.6 1.7-1.1 2.7-1.4 1-0.3 2-0.4 2.9-0.4 0.6 0 1.3 0.1 2.1 0.2 0.8 0.1 1.6 0.5 2.3 0.9 0.7 0.4 1.4 1.1 1.9 2 0.5 0.9 0.7 2.1 0.7 3.5v12.4h-3v-2.6h-0.2c-0.2 0.4-0.6 0.9-1 1.4q-0.8 0.7-1.8 1.2-1.2 0.6-2.7 0.6zm0.5-2.7c1.1 0 2.1-0.2 2.8-0.7 0.8-0.4 1.4-1 1.8-1.7 0.4-0.7 0.6-1.4 0.6-2.2v-2.6c-0.1 0.1-0.4 0.3-0.8 0.4-0.4 0.1-0.9 0.2-1.4 0.3-0.5 0.1-1 0.2-1.5 0.2-0.5 0-0.9 0.1-1.2 0.1-0.7 0.1-1.4 0.2-2 0.5-0.6 0.2-1.1 0.5-1.5 1-0.4 0.4-0.6 1-0.6 1.7 0 1 0.4 1.7 1.1 2.2 0.7 0.5 1.6 0.8 2.7 0.8z"/><path class="a" d="m1053.6 36.2v-18.8h2.9v2.9h0.2c0.3-1 1-1.7 1.9-2.3q1.4-0.9 3-0.9c0.2 0 0.5 0 0.8 0 0.3 0 0.6 0 0.7 0v3c-0.1 0-0.3-0.1-0.7-0.1-0.4 0-0.7-0.1-1.1-0.1-1.4 0-2.5 0.4-3.4 1.2-0.9 0.8-1.3 1.9-1.3 3.1v11.8h-3z"/><path class="a" d="m1067.1 36.2v-18.8h2.9v3.4c0.5-1.3 1.2-2.2 2.1-2.8 0.9-0.6 2-0.9 3.1-0.9 1.2 0 2.3 0.4 3.1 1.1 0.8 0.7 1.4 1.6 1.7 2.8 0.4-1.2 1.2-2.1 2.3-2.8 1.1-0.7 2.3-1 3.6-1 1.1 0 2.1 0.2 3 0.7q1.3 0.7 2.1 2.1c0.5 1 0.8 2.2 0.8 3.6v12.7h-3v-12.7c0-1.4-0.4-2.3-1.1-2.9-0.7-0.6-1.6-0.9-2.6-0.9q-2 0-3 1.2c-0.7 0.8-1.1 1.8-1.1 2.9v12.3h-3v-12.9c0-1-0.3-1.9-1-2.5-0.7-0.6-1.6-1-2.6-1-1.1 0-2.1 0.4-2.9 1.1-0.8 0.7-1.3 1.9-1.3 3.4v11.8h-3.1z"/><path class="a" d="m1102.6 36.7c-1.2 0-2.3-0.2-3.2-0.7-0.9-0.5-1.7-1.1-2.3-2-0.6-0.9-0.9-1.9-0.9-3.1 0-1.1 0.2-2 0.6-2.6 0.4-0.7 1-1.2 1.7-1.6q1-0.6 2.4-0.9c0.9-0.2 1.7-0.3 2.6-0.5 1.1-0.1 2-0.3 2.7-0.3 0.7-0.1 1.2-0.2 1.6-0.4 0.3-0.2 0.5-0.5 0.5-1v-0.1c0-1.2-0.3-2.1-1-2.7-0.7-0.6-1.6-1-2.9-1-1.4 0-2.4 0.3-3.2 0.9-0.8 0.6-1.3 1.2-1.6 1.9l-2.9-1c0.5-1.1 1.1-2 2-2.7 0.8-0.6 1.7-1.1 2.7-1.4 1-0.3 2-0.4 2.9-0.4 0.6 0 1.3 0.1 2.1 0.2 0.8 0.1 1.6 0.5 2.3 0.9 0.7 0.4 1.4 1.1 1.9 2 0.5 0.9 0.7 2.1 0.7 3.5v12.4h-3v-2.6h-0.2c-0.2 0.4-0.6 0.9-1 1.4q-0.8 0.7-1.8 1.2-1 0.6-2.7 0.6zm0.5-2.7c1.1 0 2.1-0.2 2.8-0.7 0.7-0.5 1.4-1 1.8-1.7 0.4-0.7 0.6-1.4 0.6-2.2v-2.6c-0.1 0.1-0.4 0.3-0.8 0.4-0.4 0.1-0.9 0.2-1.4 0.3-0.5 0.1-1 0.2-1.5 0.2-0.5 0-0.9 0.1-1.2 0.1-0.7 0.1-1.4 0.2-2 0.5-0.6 0.2-1.1 0.5-1.5 1-0.4 0.4-0.6 1-0.6 1.7 0 1 0.4 1.7 1.1 2.2 0.7 0.5 1.6 0.8 2.7 0.8z"/><path class="a" d="m1124.3 36.6q-2.5 0-4.5-1.2c-1.3-0.8-2.3-1.9-3-3.4-0.7-1.5-1.1-3.2-1.1-5.1 0-2 0.4-3.7 1.1-5.1 0.7-1.5 1.7-2.6 3-3.4q2-1.2 4.5-1.2c1.8 0 3.4 0.5 4.8 1.4 1.4 0.9 2.3 2.2 2.8 3.8l-2.9 0.8c-0.3-1-0.8-1.8-1.6-2.4-0.8-0.6-1.8-0.9-3.1-0.9-1.3 0-2.3 0.3-3.1 1-0.8 0.7-1.4 1.5-1.8 2.6-0.4 1.1-0.6 2.2-0.6 3.5 0 1.2 0.2 2.4 0.6 3.4 0.4 1 1 1.9 1.8 2.6 0.8 0.7 1.8 1 3.1 1 1.3 0 2.3-0.3 3.1-1 0.8-0.7 1.4-1.5 1.7-2.5l2.9 0.8c-0.5 1.7-1.5 3-2.8 3.9-1.4 0.9-3 1.4-4.9 1.4z"/><path class="a" d="m1144.3 36.6c-1.8 0-3.4-0.4-4.7-1.2-1.3-0.8-2.3-1.9-3-3.4-0.7-1.5-1.1-3.1-1.1-5.1 0-2 0.3-3.6 1-5.1 0.7-1.5 1.7-2.6 3-3.4q1.9-1.2 4.5-1.2c1 0 2 0.2 3 0.5 1 0.3 1.8 0.9 2.6 1.6 0.8 0.7 1.4 1.7 1.9 2.9 0.5 1.2 0.7 2.7 0.7 4.4v1.3h-13.6c0.1 2 0.6 3.5 1.7 4.5 1 1 2.4 1.6 4.1 1.6 1.1 0 2.1-0.2 2.9-0.7 0.8-0.5 1.4-1.2 1.7-2.2l2.9 0.8c-0.4 1.4-1.3 2.6-2.6 3.5-1.5 0.8-3.1 1.2-5 1.2zm-5.8-11.3h10.5q-0.1-2.4-1.5-3.9-1.3-1.5-3.6-1.5c-1.1 0-2 0.3-2.8 0.8-0.8 0.5-1.4 1.2-1.8 2-0.5 0.7-0.7 1.6-0.8 2.6z"/><path class="a" d="m1162.8 36.5c-1.9 0-3.4-0.6-4.6-1.8-1.2-1.2-1.8-3-1.8-5.3v-12h3v11.7c0 1.4 0.4 2.6 1.1 3.4 0.8 0.8 1.8 1.2 3.1 1.2 1.3 0 2.5-0.4 3.4-1.3 0.9-0.9 1.4-2.1 1.4-3.7v-11.3h3v18.8h-2.9v-3.5c-0.6 1.4-1.4 2.3-2.4 2.9-0.9 0.6-2.1 0.9-3.3 0.9z"/><path class="a" d="m1184.2 17.4v2.6h-3.9v11.3c0 0.8 0.2 1.5 0.5 1.8 0.3 0.3 0.9 0.6 1.7 0.6 0.2 0 0.4 0 0.7-0.1 0.3 0 0.6-0.1 0.8-0.1l0.6 2.6c-0.3 0.1-0.7 0.2-1.1 0.3-0.4 0.1-0.8 0.1-1.2 0.1-1.6 0-2.9-0.4-3.8-1.3-0.9-0.9-1.4-2.1-1.4-3.6v-11.6h-2.8v-2.6h2.8v-4.5h3v4.5z"/><path class="a" d="m1189.6 14.3q-0.9 0-1.5-0.6c-0.4-0.4-0.6-0.9-0.6-1.4 0-0.6 0.2-1 0.6-1.4q0.6-0.6 1.5-0.6 0.9 0 1.5 0.6c0.4 0.4 0.6 0.9 0.6 1.4 0 0.5-0.2 1-0.6 1.4q-0.6 0.6-1.5 0.6zm-1.5 21.9v-18.8h3v18.8z"/><path class="a" d="m1204.1 36.6q-2.5 0-4.5-1.2c-1.3-0.8-2.3-1.9-3-3.4-0.7-1.5-1.1-3.2-1.1-5.1 0-2 0.4-3.7 1.1-5.1 0.7-1.5 1.7-2.6 3-3.4q2-1.2 4.5-1.2c1.8 0 3.4 0.5 4.8 1.4 1.4 0.9 2.3 2.2 2.8 3.8l-2.9 0.8c-0.3-1-0.8-1.8-1.6-2.4-0.8-0.6-1.8-0.9-3.1-0.9-1.3 0-2.3 0.3-3.1 1-0.8 0.7-1.4 1.5-1.8 2.6-0.4 1.1-0.6 2.2-0.6 3.5 0 1.2 0.2 2.4 0.6 3.4 0.4 1 1 1.9 1.8 2.6 0.8 0.7 1.8 1 3.1 1 1.3 0 2.3-0.3 3.1-1 0.8-0.7 1.4-1.5 1.7-2.5l2.9 0.8c-0.5 1.7-1.5 3-2.8 3.9-1.5 0.9-3.1 1.4-4.9 1.4z"/><path class="a" d="m1221.7 36.7c-1.2 0-2.3-0.2-3.2-0.7-0.9-0.5-1.7-1.1-2.3-2-0.6-0.9-0.9-1.9-0.9-3.1 0-1.1 0.2-2 0.6-2.6 0.4-0.7 1-1.2 1.7-1.6q1-0.6 2.4-0.9c0.9-0.2 1.7-0.3 2.6-0.5 1.1-0.1 2-0.3 2.7-0.3 0.7-0.1 1.2-0.2 1.6-0.4 0.3-0.2 0.5-0.5 0.5-1v-0.1c0-1.2-0.3-2.1-1-2.7-0.7-0.6-1.6-1-2.9-1-1.4 0-2.4 0.3-3.2 0.9-0.8 0.6-1.3 1.2-1.6 1.9l-2.9-1c0.5-1.1 1.1-2 2-2.7 0.8-0.6 1.7-1.1 2.7-1.4 1-0.3 2-0.4 2.9-0.4 0.6 0 1.3 0.1 2.1 0.2 0.8 0.1 1.6 0.5 2.3 0.9 0.7 0.4 1.4 1.1 1.9 2 0.5 0.9 0.7 2.1 0.7 3.5v12.4h-3v-2.6h-0.2c-0.2 0.4-0.6 0.9-1 1.4q-0.8 0.7-1.8 1.2-1 0.6-2.7 0.6zm0.5-2.7c1.1 0 2.1-0.2 2.8-0.7 0.7-0.5 1.4-1 1.8-1.7 0.4-0.7 0.6-1.4 0.6-2.2v-2.6c-0.1 0.1-0.4 0.3-0.8 0.4-0.4 0.1-0.9 0.2-1.4 0.3-0.5 0.1-1 0.2-1.5 0.2-0.5 0-0.9 0.1-1.2 0.1-0.7 0.1-1.4 0.2-2 0.5-0.6 0.2-1.1 0.5-1.5 1-0.4 0.4-0.6 1-0.6 1.7 0 1 0.4 1.7 1.1 2.2 0.7 0.5 1.6 0.8 2.7 0.8z"/><path class="a" d="m1238.8 11.2v25.1h-3v-25.1z"/><path class="a" d="m1252 36.2l9.1-25.1h3.7l9.2 25.1h-3.4l-2.5-7h-10.3l-2.4 7zm6.8-9.8h8.4l-1.8-5.1c-0.3-0.8-0.6-1.9-1-3.1-0.4-1.2-0.8-2.7-1.4-4.5-0.5 1.9-1 3.4-1.4 4.6-0.4 1.2-0.7 2.2-1 3z"/><path class="a" d="m1280.6 11.2v25.1h-3v-25.1z"/><path class="a" d="m1289 11.2v25.1h-3v-25.1z"/><path class="a" d="m1295.8 14.3q-0.9 0-1.5-0.6c-0.4-0.4-0.6-0.9-0.6-1.4 0-0.6 0.2-1 0.6-1.4q0.6-0.6 1.5-0.6 0.9 0 1.5 0.6c0.4 0.4 0.6 0.9 0.6 1.4 0 0.5-0.2 1-0.6 1.4q-0.6 0.6-1.5 0.6zm-1.5 21.9v-18.8h3v18.8z"/><path class="a" d="m1307.9 36.7c-1.2 0-2.3-0.2-3.2-0.7-0.9-0.5-1.7-1.1-2.3-2-0.6-0.9-0.9-1.9-0.9-3.1 0-1.1 0.2-2 0.6-2.6 0.4-0.7 1-1.2 1.7-1.6q1-0.6 2.4-0.9c0.9-0.2 1.7-0.3 2.6-0.5 1.1-0.1 2-0.3 2.7-0.3 0.7-0.1 1.2-0.2 1.6-0.4 0.3-0.2 0.5-0.5 0.5-1v-0.1c0-1.2-0.3-2.1-1-2.7-0.7-0.6-1.6-1-2.9-1-1.4 0-2.4 0.3-3.2 0.9-0.8 0.6-1.3 1.2-1.6 1.9l-2.9-1c0.5-1.1 1.1-2 2-2.7 0.8-0.6 1.7-1.1 2.7-1.4 1-0.3 2-0.4 2.9-0.4 0.6 0 1.3 0.1 2.1 0.2 0.8 0.1 1.6 0.5 2.3 0.9 0.7 0.4 1.4 1.1 1.9 2 0.5 0.9 0.7 2.1 0.7 3.5v12.4h-3v-2.6h-0.2c-0.2 0.4-0.6 0.9-1 1.4q-0.8 0.7-1.8 1.2-1.2 0.6-2.7 0.6zm0.5-2.7c1.1 0 2.1-0.2 2.8-0.7 0.7-0.5 1.4-1 1.8-1.7 0.4-0.7 0.6-1.4 0.6-2.2v-2.6c-0.1 0.1-0.4 0.3-0.8 0.4-0.4 0.1-0.9 0.2-1.4 0.3-0.5 0.1-1 0.2-1.5 0.2-0.5 0-0.9 0.1-1.2 0.1-0.7 0.1-1.4 0.2-2 0.5-0.6 0.2-1.1 0.5-1.5 1-0.4 0.4-0.6 1-0.6 1.7 0 1 0.4 1.7 1.1 2.2 0.7 0.5 1.6 0.8 2.7 0.8z"/><path class="a" d="m1325 24.9v11.3h-3v-18.8h2.9v3.5c0.6-1.3 1.4-2.3 2.4-2.9 1-0.6 2.1-0.9 3.4-0.9 1.9 0 3.4 0.6 4.6 1.8 1.2 1.2 1.8 3 1.8 5.3v11.9h-3v-11.6c0-1.4-0.4-2.6-1.1-3.4-0.8-0.8-1.8-1.2-3.1-1.2-1.4 0-2.5 0.4-3.4 1.3-1.1 0.9-1.5 2.1-1.5 3.7z"/><path class="a" d="m1350 36.6q-2.6 0-4.5-1.2c-1.3-0.8-2.3-1.9-3-3.4-0.7-1.5-1.1-3.2-1.1-5.1 0-2 0.4-3.7 1.1-5.1 0.7-1.5 1.7-2.6 3-3.4q1.9-1.2 4.5-1.2c1.8 0 3.4 0.5 4.8 1.4 1.4 0.9 2.3 2.2 2.8 3.8l-2.9 0.8c-0.3-1-0.8-1.8-1.6-2.4-0.8-0.6-1.8-0.9-3.1-0.9-1.3 0-2.3 0.3-3.1 1-0.8 0.7-1.4 1.5-1.8 2.6-0.4 1.1-0.6 2.2-0.6 3.5 0 1.2 0.2 2.4 0.6 3.4 0.4 1 1 1.9 1.8 2.6 0.8 0.7 1.8 1 3.1 1 1.3 0 2.3-0.3 3.1-1 0.8-0.7 1.4-1.5 1.7-2.5l2.9 0.8c-0.5 1.7-1.5 3-2.8 3.9-1.5 0.9-3.1 1.4-4.9 1.4z"/><path class="a" d="m1369.9 36.6c-1.8 0-3.4-0.4-4.7-1.2-1.3-0.8-2.3-1.9-3-3.4-0.7-1.5-1.1-3.1-1.1-5.1 0-2 0.3-3.6 1-5.1 0.7-1.5 1.7-2.6 3-3.4q2-1.2 4.5-1.2c1 0 2 0.2 3 0.5 1 0.3 1.8 0.9 2.6 1.6 0.8 0.7 1.4 1.7 1.9 2.9 0.5 1.2 0.7 2.7 0.7 4.4v1.3h-13.6c0.1 2 0.6 3.5 1.7 4.5 1 1 2.4 1.6 4.1 1.6 1.1 0 2.1-0.2 2.9-0.7 0.8-0.5 1.4-1.2 1.7-2.2l2.9 0.8c-0.4 1.4-1.3 2.6-2.6 3.5-1.4 0.8-3.1 1.2-5 1.2zm-5.7-11.3h10.5q-0.1-2.4-1.5-3.9-1.4-1.5-3.6-1.5c-1.1 0-2 0.3-2.8 0.8-0.8 0.5-1.4 1.2-1.8 2-0.5 0.7-0.8 1.6-0.8 2.6z"/><path class="a" d="m750.1 77.1l9.1-25.1h3.7l9.2 25.1h-3.4l-2.5-7h-10.2l-2.4 7zm6.8-9.8h8.4l-1.8-5.1c-0.3-0.8-0.6-1.9-1-3.1-0.4-1.2-0.8-2.7-1.4-4.5-0.5 1.9-1 3.4-1.4 4.6-0.4 1.2-0.7 2.2-1 3z"/><path class="a" d="m778.7 52v25.1h-3v-25.1z"/><path class="a" d="m787.1 52v25.1h-3v-25.1z"/><path class="a" d="m793.9 55.2q-0.9 0-1.5-0.6c-0.4-0.4-0.6-0.9-0.6-1.4 0-0.6 0.2-1 0.6-1.4q0.6-0.6 1.5-0.6 0.9 0 1.5 0.6c0.4 0.4 0.6 0.9 0.6 1.4 0 0.5-0.2 1-0.6 1.4q-0.6 0.6-1.5 0.6zm-1.5 21.9v-18.8h3v18.8z"/><path class="a" d="m806 77.5c-1.2 0-2.3-0.2-3.2-0.7-0.9-0.5-1.7-1.1-2.3-2-0.6-0.9-0.9-1.9-0.9-3.1 0-1.1 0.2-2 0.6-2.6 0.4-0.7 1-1.2 1.7-1.6q1.1-0.6 2.4-0.9c0.9-0.2 1.7-0.3 2.6-0.5 1.1-0.1 2-0.3 2.7-0.3 0.7-0.1 1.2-0.2 1.6-0.4 0.3-0.2 0.5-0.5 0.5-1v-0.1c0-1.2-0.3-2.1-1-2.7-0.7-0.6-1.6-1-2.9-1-1.4 0-2.4 0.3-3.2 0.9-0.8 0.6-1.3 1.2-1.6 1.9l-2.9-1c0.5-1.1 1.1-2 2-2.7 0.8-0.6 1.7-1.1 2.7-1.4 1-0.3 2-0.4 2.9-0.4 0.6 0 1.3 0.1 2.1 0.2 0.8 0.1 1.6 0.5 2.3 0.9 0.7 0.4 1.4 1.1 1.9 2 0.5 0.9 0.7 2.1 0.7 3.5v12.4h-3v-2.6h-0.2c-0.2 0.4-0.6 0.9-1 1.4q-0.7 0.8-1.8 1.2c-0.7 0.5-1.7 0.6-2.7 0.6zm0.5-2.7c1.1 0 2.1-0.2 2.8-0.7 0.8-0.4 1.4-1 1.8-1.7 0.4-0.7 0.6-1.4 0.6-2.2v-2.6c-0.1 0.1-0.4 0.3-0.8 0.4-0.4 0.1-0.9 0.2-1.4 0.3-0.5 0.1-1 0.2-1.5 0.2-0.5 0-0.9 0.1-1.2 0.1-0.7 0.1-1.4 0.2-2 0.5-0.6 0.3-1.1 0.5-1.5 1-0.4 0.4-0.6 1-0.6 1.7 0 1 0.4 1.7 1.1 2.2 0.7 0.5 1.6 0.8 2.7 0.8z"/><path class="a" d="m823.1 65.8v11.3h-3v-18.8h2.9v3.5c0.6-1.3 1.4-2.3 2.4-2.9 1-0.6 2.1-0.9 3.4-0.9 1.9 0 3.4 0.6 4.6 1.8 1.2 1.2 1.7 3 1.7 5.3v11.9h-3v-11.6c0-1.4-0.4-2.6-1.1-3.4-0.8-0.8-1.8-1.2-3.1-1.2-1.4 0-2.5 0.4-3.4 1.3-1 0.9-1.4 2.1-1.4 3.7z"/><path class="a" d="m848.1 77.5q-2.6 0-4.5-1.2c-1.3-0.8-2.3-1.9-3-3.4-0.7-1.5-1.1-3.2-1.1-5.1 0-2 0.4-3.7 1.1-5.1 0.7-1.5 1.7-2.6 3-3.4q1.9-1.2 4.5-1.2c1.8 0 3.4 0.5 4.8 1.4 1.4 0.9 2.3 2.2 2.8 3.8l-2.9 0.8c-0.3-1-0.8-1.8-1.6-2.4-0.8-0.6-1.8-0.9-3.1-0.9-1.3 0-2.3 0.3-3.1 1-0.8 0.7-1.4 1.5-1.8 2.6-0.4 1.1-0.6 2.2-0.6 3.5 0 1.2 0.2 2.4 0.6 3.4 0.4 1 1 1.9 1.8 2.6 0.8 0.7 1.8 1 3.1 1 1.3 0 2.3-0.3 3.1-1 0.8-0.7 1.4-1.5 1.7-2.5l2.9 0.8c-0.5 1.7-1.5 3-2.8 3.9-1.3 0.9-3.1 1.4-4.9 1.4z"/><path class="a" d="m868 77.5c-1.8 0-3.4-0.4-4.7-1.2-1.3-0.8-2.3-1.9-3-3.4-0.7-1.4-1.1-3.1-1.1-5.1 0-2 0.3-3.6 1-5.1 0.7-1.5 1.7-2.6 3-3.4q1.9-1.2 4.5-1.2c1 0 2 0.2 3 0.5 1 0.3 1.9 0.9 2.6 1.6 0.8 0.7 1.4 1.7 1.9 2.9 0.5 1.2 0.7 2.7 0.7 4.4v1.3h-13.6c0.1 2 0.6 3.5 1.7 4.5 1 1 2.4 1.6 4.1 1.6 1.1 0 2.1-0.2 2.9-0.7 0.8-0.5 1.4-1.2 1.7-2.2l2.9 0.8c-0.4 1.4-1.3 2.6-2.6 3.5-1.4 0.7-3.1 1.2-5 1.2zm-5.7-11.4h10.5q-0.2-2.4-1.5-3.9-1.3-1.5-3.6-1.5c-1.1 0-2 0.3-2.8 0.8-0.8 0.5-1.4 1.2-1.8 2-0.4 0.8-0.8 1.7-0.8 2.6z"/><path class="a" d="m889.9 84.1v-25.8h2.9v3h0.3c0.2-0.3 0.5-0.8 0.9-1.3 0.4-0.5 0.9-1 1.6-1.4 0.7-0.4 1.7-0.6 2.9-0.6 1.6 0 3 0.4 4.1 1.2 1.1 0.8 2.1 1.9 2.8 3.4 0.7 1.5 1 3.2 1 5.2 0 2-0.3 3.7-1 5.2-0.7 1.5-1.6 2.6-2.8 3.4-1.2 0.8-2.6 1.2-4.1 1.2-1.2 0-2.1-0.2-2.9-0.6-0.8-0.4-1.3-0.9-1.7-1.4-0.4-0.5-0.7-1-0.9-1.3h-0.2v9.9h-2.9zm8.2-9.3c1.2 0 2.2-0.3 3-1 0.8-0.6 1.4-1.5 1.8-2.6q0.6-1.6 0.6-3.6c0-1.3-0.2-2.5-0.6-3.5-0.4-1-1-1.9-1.8-2.5q-1.2-0.9-3-0.9c-1.7 0-3 0.6-3.9 1.9-0.9 1.3-1.3 3-1.3 5 0 2.1 0.5 3.8 1.4 5.1 0.8 1.4 2.1 2.1 3.8 2.1z"/><path class="a" d="m914 65.8v11.3h-3v-25.1h3v9.5q0.9-1.9 2.4-2.7c1-0.5 2.1-0.8 3.3-0.8 1.9 0 3.4 0.6 4.6 1.8 1.2 1.2 1.8 3 1.8 5.3v11.9h-3v-11.6c0-1.4-0.4-2.6-1.1-3.4-0.8-0.8-1.8-1.2-3.1-1.2-1.4 0-2.5 0.4-3.4 1.3-1.1 0.9-1.5 2.1-1.5 3.7z"/><path class="a" d="m936.6 77.5c-1.2 0-2.3-0.2-3.2-0.7-1-0.4-1.7-1.1-2.3-2-0.6-0.9-0.9-1.9-0.9-3.1 0-1.1 0.2-2 0.6-2.6 0.4-0.6 1-1.2 1.7-1.6q1.1-0.6 2.4-0.9c0.9-0.2 1.7-0.3 2.6-0.5 1.1-0.1 2-0.3 2.7-0.3 0.7 0 1.2-0.2 1.6-0.4 0.3-0.2 0.5-0.5 0.5-1v-0.1c0-1.2-0.3-2.1-1-2.7-0.7-0.6-1.6-1-2.9-1-1.4 0-2.4 0.3-3.2 0.9-0.8 0.6-1.3 1.2-1.6 1.9l-2.9-1c0.5-1.1 1.1-2 2-2.7 0.8-0.6 1.7-1.1 2.7-1.4 1-0.3 2-0.4 2.9-0.4 0.6 0 1.3 0.1 2.1 0.2 0.8 0.1 1.6 0.5 2.3 0.9 0.7 0.4 1.4 1.1 1.9 2 0.5 0.9 0.7 2.1 0.7 3.5v12.4h-3v-2.6h-0.2c-0.2 0.4-0.6 0.9-1 1.4q-0.7 0.8-1.8 1.2c-0.7 0.5-1.6 0.6-2.7 0.6zm0.5-2.7c1.1 0 2.1-0.2 2.8-0.7 0.8-0.4 1.4-1 1.8-1.7 0.4-0.7 0.6-1.4 0.6-2.2v-2.6c-0.1 0.1-0.4 0.3-0.8 0.4-0.4 0.1-0.9 0.2-1.4 0.3-0.5 0.1-1 0.2-1.5 0.2-0.5 0-0.9 0.1-1.2 0.1-0.7 0.1-1.4 0.2-2 0.5-0.6 0.2-1.1 0.5-1.5 1-0.4 0.4-0.6 1-0.6 1.7 0 1 0.4 1.7 1.1 2.2 0.7 0.5 1.6 0.8 2.7 0.8z"/><path class="a" d="m950.7 77.1v-18.8h2.9v2.9h0.2c0.3-1 1-1.7 1.9-2.3q1.4-0.9 3-0.9c0.2 0 0.5 0 0.8 0 0.3 0 0.6 0 0.7 0v3c-0.1 0-0.3-0.1-0.7-0.1-0.4 0-0.7-0.1-1.1-0.1-1.4 0-2.5 0.4-3.4 1.2-0.9 0.8-1.3 1.9-1.3 3.1v11.8h-3z"/><path class="a" d="m964.2 77.1v-18.8h2.9v3.4c0.5-1.3 1.2-2.2 2.1-2.8 1-0.6 2-0.9 3.1-0.9 1.2 0 2.3 0.4 3.1 1.1 0.8 0.7 1.4 1.6 1.7 2.8 0.4-1.2 1.2-2.1 2.3-2.8 1.1-0.7 2.3-1 3.6-1 1.1 0 2.1 0.2 3 0.7q1.4 0.8 2.1 2.1c0.5 0.9 0.8 2.2 0.8 3.6v12.7h-3v-12.7c0-1.4-0.4-2.3-1.1-2.9-0.7-0.6-1.6-0.9-2.6-0.9q-1.9 0-3 1.2c-0.7 0.8-1.1 1.8-1.1 2.9v12.3h-3v-12.9c0-1-0.3-1.9-1-2.5-0.7-0.6-1.6-1-2.6-1-1.1 0-2.1 0.4-2.9 1.1-0.9 0.8-1.3 1.9-1.3 3.4v11.8h-3.1z"/><path class="a" d="m999.6 77.5c-1.2 0-2.3-0.2-3.2-0.7-1-0.4-1.7-1.1-2.3-2-0.6-0.9-0.9-1.9-0.9-3.1 0-1.1 0.2-2 0.6-2.6 0.4-0.6 1-1.2 1.7-1.6q1.1-0.6 2.4-0.9c0.9-0.2 1.7-0.3 2.6-0.5 1.1-0.1 2-0.3 2.7-0.3 0.7 0 1.2-0.2 1.6-0.4 0.3-0.2 0.5-0.5 0.5-1v-0.1c0-1.2-0.3-2.1-1-2.7-0.7-0.6-1.6-1-2.9-1-1.4 0-2.4 0.3-3.2 0.9-0.8 0.6-1.3 1.2-1.6 1.9l-2.9-1c0.5-1.1 1.1-2 2-2.7 0.8-0.6 1.7-1.1 2.7-1.4 1-0.3 2-0.4 2.9-0.4 0.6 0 1.3 0.1 2.1 0.2 0.8 0.1 1.6 0.5 2.3 0.9 0.7 0.4 1.4 1.1 1.9 2 0.5 0.9 0.7 2.1 0.7 3.5v12.4h-3v-2.6h-0.2c-0.2 0.4-0.6 0.9-1 1.4q-0.7 0.8-1.8 1.2c-0.7 0.5-1.6 0.6-2.7 0.6zm0.5-2.7c1.1 0 2.1-0.2 2.8-0.7 0.8-0.4 1.4-1 1.8-1.7 0.4-0.7 0.6-1.4 0.6-2.2v-2.6c-0.1 0.1-0.4 0.3-0.8 0.4-0.4 0.1-0.9 0.2-1.4 0.3-0.5 0.1-1 0.2-1.5 0.2-0.5 0-0.9 0.1-1.2 0.1-0.7 0.1-1.4 0.2-2 0.5-0.6 0.2-1.1 0.5-1.5 1-0.4 0.4-0.6 1-0.6 1.7 0 1 0.4 1.7 1.1 2.2 0.7 0.5 1.6 0.8 2.7 0.8z"/><path class="a" d="m1021.4 77.5q-2.6 0-4.5-1.2c-1.3-0.8-2.3-1.9-3-3.4-0.7-1.5-1.1-3.2-1.1-5.1 0-2 0.4-3.7 1.1-5.1 0.7-1.5 1.7-2.6 3-3.4q1.9-1.2 4.5-1.2c1.8 0 3.4 0.5 4.8 1.4 1.4 0.9 2.3 2.2 2.8 3.8l-2.9 0.8c-0.3-1-0.8-1.8-1.6-2.4-0.8-0.6-1.8-0.9-3.1-0.9-1.3 0-2.3 0.3-3.1 1-0.8 0.7-1.4 1.5-1.8 2.6-0.4 1.1-0.6 2.2-0.6 3.5 0 1.2 0.2 2.4 0.6 3.4 0.4 1 1 1.9 1.8 2.6 0.8 0.7 1.8 1 3.1 1 1.3 0 2.3-0.3 3.1-1 0.8-0.7 1.4-1.5 1.7-2.5l2.9 0.8c-0.5 1.7-1.5 3-2.8 3.9-1.3 0.9-3.1 1.4-4.9 1.4z"/><path class="a" d="m1041.3 77.5c-1.8 0-3.4-0.4-4.7-1.2-1.3-0.8-2.3-1.9-3-3.4-0.7-1.4-1.1-3.1-1.1-5.1 0-2 0.3-3.6 1-5.1 0.7-1.5 1.7-2.6 3-3.4q1.9-1.2 4.5-1.2c1 0 2 0.2 3 0.5 1 0.3 1.9 0.9 2.6 1.6 0.8 0.7 1.4 1.7 1.9 2.9 0.5 1.2 0.7 2.7 0.7 4.4v1.3h-13.6c0.1 2 0.6 3.5 1.7 4.5 1 1 2.4 1.6 4.1 1.6 1.1 0 2.1-0.2 2.9-0.7 0.8-0.5 1.4-1.2 1.7-2.2l2.9 0.8c-0.4 1.4-1.3 2.6-2.6 3.5-1.4 0.7-3.1 1.2-5 1.2zm-5.7-11.4h10.5q-0.1-2.4-1.5-3.9-1.3-1.5-3.6-1.5c-1.1 0-2 0.3-2.8 0.8-0.8 0.5-1.4 1.2-1.8 2-0.4 0.8-0.8 1.7-0.8 2.6z"/><path class="a" d="m1059.8 77.3c-1.9 0-3.4-0.6-4.6-1.8-1.2-1.2-1.8-3-1.8-5.3v-11.9h3v11.7c0 1.4 0.4 2.6 1.1 3.4 0.8 0.8 1.8 1.2 3.1 1.2 1.3 0 2.5-0.4 3.4-1.3 0.9-0.9 1.4-2.1 1.4-3.7v-11.3h3v18.8h-2.9v-3.5c-0.6 1.4-1.4 2.3-2.4 2.9-0.9 0.5-2 0.8-3.3 0.8z"/><path class="a" d="m1081.2 58.3v2.6h-3.9v11.3c0 0.8 0.2 1.5 0.5 1.8 0.3 0.3 0.9 0.6 1.7 0.6 0.2 0 0.4 0 0.7-0.1 0.3 0 0.6-0.1 0.8-0.1l0.6 2.6c-0.3 0.1-0.7 0.2-1.1 0.3-0.4 0.1-0.8 0.1-1.2 0.1-1.6 0-2.9-0.4-3.8-1.3-0.9-0.9-1.4-2.1-1.4-3.6v-11.6h-2.8v-2.6h2.8v-4.5h3v4.5z"/><path class="a" d="m1086.6 55.2q-0.9 0-1.5-0.6c-0.4-0.4-0.6-0.9-0.6-1.4 0-0.6 0.2-1 0.6-1.4q0.6-0.6 1.5-0.6 0.9 0 1.5 0.6c0.4 0.4 0.6 0.9 0.6 1.4 0 0.5-0.2 1-0.6 1.4q-0.6 0.6-1.5 0.6zm-1.5 21.9v-18.8h3v18.8z"/><path class="a" d="m1109.2 84.1h-3v-9.9h-0.2c-0.2 0.3-0.5 0.8-0.9 1.3-0.4 0.5-1 1-1.7 1.4-0.7 0.4-1.7 0.6-2.9 0.6-1.6 0-2.9-0.4-4.1-1.2-1.2-0.8-2.1-1.9-2.8-3.4-0.7-1.5-1-3.2-1-5.2 0-2 0.3-3.7 1-5.2 0.7-1.5 1.6-2.6 2.8-3.4 1.2-0.8 2.6-1.2 4.1-1.2 1.2 0 2.2 0.2 2.9 0.6 0.7 0.4 1.3 0.9 1.7 1.4 0.4 0.5 0.7 0.9 0.9 1.3h0.3v-3h2.9zm-8.2-9.3c1.7 0 3-0.7 3.9-2 0.9-1.3 1.4-3 1.4-5.1 0-2.1-0.4-3.8-1.3-5-0.9-1.2-2.2-1.9-3.9-1.9q-1.8 0-3 0.9c-0.8 0.6-1.4 1.4-1.8 2.5-0.4 1.1-0.6 2.2-0.6 3.5q0 1.9 0.6 3.6c0.4 1.1 1 1.9 1.8 2.6 0.7 0.5 1.7 0.9 2.9 0.9z"/><path class="a" d="m1120.9 77.3c-1.9 0-3.4-0.6-4.6-1.8-1.2-1.2-1.8-3-1.8-5.3v-11.9h3v11.7c0 1.4 0.4 2.6 1.1 3.4 0.8 0.8 1.8 1.2 3.1 1.2 1.3 0 2.5-0.4 3.4-1.3 0.9-0.9 1.4-2.1 1.4-3.7v-11.3h3v18.8h-2.9v-3.5c-0.6 1.4-1.4 2.3-2.4 2.9-0.9 0.5-2 0.8-3.3 0.8z"/><path class="a" d="m1142.8 77.5c-1.8 0-3.4-0.4-4.7-1.2-1.3-0.8-2.3-1.9-3-3.4-0.7-1.5-1.1-3.1-1.1-5.1 0-2 0.3-3.6 1-5.1 0.7-1.5 1.7-2.6 3-3.4q1.9-1.2 4.5-1.2c1 0 2 0.2 3 0.5 1 0.3 1.8 0.9 2.6 1.6 0.8 0.7 1.4 1.7 1.9 2.9 0.5 1.2 0.7 2.7 0.7 4.4v1.3h-13.6c0.1 2 0.6 3.5 1.7 4.5 1 1 2.4 1.6 4.1 1.6 1.1 0 2.1-0.2 2.9-0.7 0.8-0.5 1.4-1.2 1.7-2.2l2.9 0.8c-0.4 1.4-1.3 2.6-2.6 3.5-1.4 0.7-3 1.2-5 1.2zm-5.7-11.4h10.5q-0.1-2.4-1.5-3.9-1.3-1.5-3.6-1.5c-1.1 0-2 0.3-2.8 0.8-0.8 0.5-1.4 1.2-1.8 2-0.5 0.8-0.8 1.7-0.8 2.6z"/><path class="a" d="m1164.7 84.1v-25.8h2.9v3h0.3c0.2-0.3 0.5-0.8 0.9-1.3 0.4-0.5 0.9-1 1.6-1.4 0.7-0.4 1.7-0.6 2.9-0.6 1.6 0 3 0.4 4.1 1.2 1.1 0.8 2.1 1.9 2.8 3.4 0.7 1.5 1 3.2 1 5.2 0 2-0.3 3.7-1 5.2-0.7 1.5-1.6 2.6-2.8 3.4-1.2 0.8-2.6 1.2-4.1 1.2-1.2 0-2.1-0.2-2.9-0.6-0.7-0.4-1.3-0.9-1.7-1.4-0.4-0.5-0.7-1-0.9-1.3h-0.2v9.9h-2.9zm8.3-9.3c1.2 0 2.2-0.3 3-1 0.8-0.6 1.4-1.5 1.8-2.6q0.6-1.6 0.6-3.6c0-1.3-0.2-2.5-0.6-3.5-0.4-1-1-1.9-1.8-2.5q-1.2-0.9-3-0.9c-1.7 0-3 0.6-3.9 1.9-0.9 1.3-1.3 3-1.3 5 0 2.1 0.5 3.8 1.4 5.1 0.8 1.4 2.1 2.1 3.8 2.1z"/><path class="a" d="m1191.4 77.5c-1.2 0-2.3-0.2-3.2-0.7-0.9-0.5-1.7-1.1-2.3-2-0.6-0.9-0.9-1.9-0.9-3.1 0-1.1 0.2-2 0.6-2.6 0.4-0.7 1-1.2 1.7-1.6q1-0.6 2.4-0.9c0.9-0.2 1.7-0.3 2.6-0.5 1.1-0.1 2-0.3 2.7-0.3 0.7-0.1 1.2-0.2 1.6-0.4 0.3-0.2 0.5-0.5 0.5-1v-0.1c0-1.2-0.3-2.1-1-2.7-0.7-0.6-1.6-1-2.9-1-1.4 0-2.4 0.3-3.2 0.9-0.8 0.6-1.3 1.2-1.6 1.9l-2.9-1c0.5-1.1 1.1-2 2-2.7 0.8-0.6 1.7-1.1 2.7-1.4 1-0.3 2-0.4 2.9-0.4 0.6 0 1.3 0.1 2.1 0.2 0.8 0.1 1.6 0.5 2.3 0.9 0.7 0.4 1.4 1.1 1.9 2 0.5 0.9 0.7 2.1 0.7 3.5v12.4h-3v-2.6h-0.2c-0.2 0.4-0.6 0.9-1 1.4q-0.8 0.8-1.8 1.2c-0.7 0.5-1.6 0.6-2.7 0.6zm0.5-2.7c1.1 0 2.1-0.2 2.8-0.7 0.7-0.5 1.4-1 1.8-1.7 0.4-0.7 0.6-1.4 0.6-2.2v-2.6c-0.1 0.1-0.4 0.3-0.8 0.4-0.4 0.1-0.9 0.2-1.4 0.3-0.5 0.1-1 0.2-1.5 0.2-0.5 0-0.9 0.1-1.2 0.1-0.7 0.1-1.4 0.2-2 0.5-0.6 0.2-1.1 0.5-1.5 1-0.4 0.4-0.6 1-0.6 1.7 0 1 0.4 1.7 1.1 2.2 0.7 0.5 1.6 0.8 2.7 0.8z"/><path class="a" d="m1208.5 65.8v11.3h-3v-18.8h2.9v3.5c0.6-1.3 1.4-2.3 2.4-2.9 1-0.6 2.1-0.9 3.4-0.9 1.9 0 3.4 0.6 4.6 1.8 1.2 1.2 1.8 3 1.8 5.3v11.9h-3v-11.6c0-1.4-0.4-2.6-1.1-3.4-0.8-0.8-1.8-1.2-3.1-1.2-1.4 0-2.5 0.4-3.4 1.3-1.1 0.9-1.5 2.1-1.5 3.7z"/><path class="a" d="m1233.5 77.5q-2.6 0-4.5-1.2c-1.3-0.8-2.3-1.9-3-3.4-0.7-1.5-1.1-3.2-1.1-5.1 0-2 0.4-3.7 1.1-5.1 0.7-1.5 1.7-2.6 3-3.4q1.9-1.2 4.5-1.2c1.8 0 3.4 0.5 4.8 1.4 1.4 0.9 2.3 2.2 2.8 3.8l-2.9 0.8c-0.3-1-0.8-1.8-1.6-2.4-0.8-0.6-1.8-0.9-3.1-0.9-1.3 0-2.3 0.3-3.1 1-0.8 0.7-1.4 1.5-1.8 2.6-0.4 1.1-0.6 2.2-0.6 3.5 0 1.2 0.2 2.4 0.6 3.4 0.4 1 1 1.9 1.8 2.6 0.8 0.7 1.8 1 3.1 1 1.3 0 2.3-0.3 3.1-1 0.8-0.7 1.4-1.5 1.7-2.5l2.9 0.8c-0.5 1.7-1.5 3-2.8 3.9-1.5 0.9-3.1 1.4-4.9 1.4z"/><path class="a" d="m1251.1 77.5c-1.2 0-2.3-0.2-3.2-0.7-0.9-0.5-1.7-1.1-2.3-2-0.6-0.9-0.9-1.9-0.9-3.1 0-1.1 0.2-2 0.6-2.6 0.4-0.7 1-1.2 1.7-1.6q1-0.6 2.4-0.9c0.9-0.2 1.7-0.3 2.6-0.5 1.1-0.1 2-0.3 2.7-0.3 0.7-0.1 1.2-0.2 1.6-0.4 0.3-0.2 0.5-0.5 0.5-1v-0.1c0-1.2-0.3-2.1-1-2.7-0.7-0.6-1.6-1-2.9-1-1.4 0-2.4 0.3-3.2 0.9-0.8 0.6-1.3 1.2-1.6 1.9l-2.9-1c0.5-1.1 1.1-2 2-2.7 0.8-0.6 1.7-1.1 2.7-1.4 1-0.3 2-0.4 2.9-0.4 0.6 0 1.3 0.1 2.1 0.2 0.8 0.1 1.6 0.5 2.3 0.9 0.7 0.4 1.4 1.1 1.9 2 0.5 0.9 0.7 2.1 0.7 3.5v12.4h-3v-2.6h-0.2c-0.2 0.4-0.6 0.9-1 1.4q-0.8 0.8-1.8 1.2c-0.7 0.5-1.6 0.6-2.7 0.6zm0.5-2.7c1.1 0 2.1-0.2 2.8-0.7 0.7-0.5 1.4-1 1.8-1.7 0.4-0.7 0.6-1.4 0.6-2.2v-2.6c-0.1 0.1-0.4 0.3-0.8 0.4-0.4 0.1-0.9 0.2-1.4 0.3-0.5 0.1-1 0.2-1.5 0.2-0.5 0-0.9 0.1-1.2 0.1-0.7 0.1-1.4 0.2-2 0.5-0.6 0.2-1.1 0.5-1.5 1-0.4 0.4-0.6 1-0.6 1.7 0 1 0.4 1.7 1.1 2.2 0.7 0.5 1.6 0.8 2.7 0.8z"/><path class="a" d="m1268.2 65.8v11.3h-3v-18.8h2.9v3.5c0.6-1.3 1.4-2.3 2.4-2.9 1-0.6 2.1-0.9 3.4-0.9 1.9 0 3.4 0.6 4.6 1.8 1.2 1.2 1.8 3 1.8 5.3v11.9h-3v-11.6c0-1.4-0.4-2.6-1.1-3.4-0.8-0.8-1.8-1.2-3.1-1.2-1.4 0-2.5 0.4-3.4 1.3-1 0.9-1.5 2.1-1.5 3.7z"/><path class="a" d="m1290.8 77.5c-1.2 0-2.3-0.2-3.2-0.7-0.9-0.5-1.7-1.1-2.3-2-0.6-0.9-0.9-1.9-0.9-3.1 0-1.1 0.2-2 0.6-2.6 0.4-0.7 1-1.2 1.7-1.6q1.1-0.6 2.4-0.9c0.9-0.2 1.7-0.3 2.6-0.5 1.1-0.1 2-0.3 2.7-0.3 0.7-0.1 1.2-0.2 1.6-0.4 0.3-0.2 0.5-0.5 0.5-1v-0.1c0-1.2-0.3-2.1-1-2.7-0.7-0.6-1.6-1-2.9-1-1.4 0-2.4 0.3-3.2 0.9-0.8 0.6-1.3 1.2-1.6 1.9l-2.9-1c0.5-1.1 1.1-2 2-2.7 0.8-0.6 1.7-1.1 2.7-1.4 1-0.3 2-0.4 2.9-0.4 0.6 0 1.3 0.1 2.1 0.2 0.8 0.1 1.6 0.5 2.3 0.9 0.7 0.4 1.4 1.1 1.9 2 0.5 0.9 0.7 2.1 0.7 3.5v12.4h-3v-2.6h-0.2c-0.2 0.4-0.6 0.9-1 1.4q-0.8 0.8-1.8 1.2c-0.7 0.5-1.6 0.6-2.7 0.6zm0.5-2.7c1.1 0 2.1-0.2 2.8-0.7 0.7-0.5 1.4-1 1.8-1.7 0.4-0.7 0.6-1.4 0.6-2.2v-2.6c-0.1 0.1-0.4 0.3-0.8 0.4-0.4 0.1-0.9 0.2-1.4 0.3-0.5 0.1-1 0.2-1.5 0.2-0.5 0-0.9 0.1-1.2 0.1-0.7 0.1-1.4 0.2-2 0.5-0.6 0.2-1.1 0.5-1.5 1-0.4 0.4-0.6 1-0.6 1.7 0 1 0.4 1.7 1.1 2.2 0.7 0.5 1.6 0.8 2.7 0.8z"/><path class="a" d="m1311.9 77.5c-1.6 0-2.9-0.4-4.1-1.2-1.2-0.8-2.1-1.9-2.8-3.4-0.7-1.5-1-3.2-1-5.2 0-2 0.3-3.7 1-5.2 0.7-1.5 1.6-2.6 2.8-3.4 1.2-0.8 2.6-1.2 4.1-1.2 1.2 0 2.2 0.2 2.9 0.6 0.7 0.4 1.3 0.9 1.7 1.4 0.4 0.5 0.7 0.9 0.9 1.3h0.2v-9.2h3v25.1h-2.9v-2.9h-0.3c-0.2 0.3-0.5 0.8-0.9 1.3-0.4 0.5-1 1-1.7 1.4-0.7 0.4-1.7 0.6-2.9 0.6zm0.5-2.7c1.7 0 3-0.7 3.9-2 0.9-1.3 1.4-3 1.4-5.1 0-2.1-0.4-3.8-1.3-5-0.9-1.2-2.2-1.9-3.9-1.9q-1.8 0-3 0.9c-0.8 0.6-1.4 1.4-1.8 2.5-0.4 1.1-0.6 2.2-0.6 3.5q0 2 0.6 3.6c0.4 1.1 1 1.9 1.8 2.6 0.7 0.5 1.7 0.9 2.9 0.9z"/><path class="a" d="m1327.5 55.2q-0.9 0-1.5-0.6c-0.4-0.4-0.6-0.9-0.6-1.4 0-0.6 0.2-1 0.6-1.4q0.6-0.6 1.5-0.6 0.9 0 1.5 0.6c0.4 0.4 0.6 0.9 0.6 1.4 0 0.5-0.2 1-0.6 1.4q-0.6 0.6-1.5 0.6zm-1.5 21.9v-18.8h3v18.8z"/><path class="a" d="m1342.2 77.5c-1.8 0-3.4-0.4-4.7-1.2-1.3-0.8-2.3-1.9-3-3.4-0.7-1.5-1.1-3.1-1.1-5.1 0-2 0.3-3.6 1-5.1 0.7-1.5 1.7-2.6 3-3.4q2-1.2 4.5-1.2c1 0 2 0.2 3 0.5 1 0.3 1.8 0.9 2.6 1.6 0.8 0.7 1.4 1.7 1.9 2.9 0.5 1.2 0.7 2.7 0.7 4.4v1.3h-13.6c0.1 2 0.6 3.5 1.7 4.5 1 1 2.4 1.6 4.1 1.6 1.1 0 2.1-0.2 2.9-0.7 0.8-0.5 1.4-1.2 1.7-2.2l2.9 0.8c-0.4 1.4-1.3 2.6-2.6 3.5-1.4 0.7-3 1.2-5 1.2zm-5.7-11.4h10.5q-0.1-2.4-1.5-3.9-1.3-1.5-3.6-1.5c-1.1 0-2 0.3-2.8 0.8-0.8 0.5-1.4 1.2-1.8 2-0.5 0.8-0.8 1.7-0.8 2.6z"/><path class="a" d="m1357.4 65.8v11.3h-3v-18.8h2.9v3.5c0.6-1.3 1.4-2.3 2.4-2.9 1-0.6 2.1-0.9 3.4-0.9 1.9 0 3.4 0.6 4.6 1.8 1.2 1.2 1.8 3 1.8 5.3v11.9h-3v-11.6c0-1.4-0.4-2.6-1.1-3.4-0.8-0.8-1.8-1.2-3.1-1.2-1.4 0-2.5 0.4-3.4 1.3-1 0.9-1.5 2.1-1.5 3.7z"/><path class="a" d="m1377.8 65.8v11.3h-3v-18.8h2.9v3.5c0.6-1.3 1.4-2.3 2.4-2.9 1-0.6 2.1-0.9 3.4-0.9 1.9 0 3.4 0.6 4.6 1.8 1.2 1.2 1.8 3 1.8 5.3v11.9h-3v-11.6c0-1.4-0.4-2.6-1.1-3.4-0.8-0.8-1.8-1.2-3.1-1.2-1.4 0-2.5 0.4-3.4 1.3-1.1 0.9-1.5 2.1-1.5 3.7z"/><path class="a" d="m1403 77.5c-1.8 0-3.4-0.4-4.7-1.2-1.3-0.8-2.3-1.9-3-3.4-0.7-1.5-1.1-3.1-1.1-5.1 0-2 0.3-3.6 1-5.1 0.7-1.5 1.7-2.6 3-3.4q2-1.2 4.5-1.2c1 0 2 0.2 3 0.5 1 0.3 1.8 0.9 2.6 1.6 0.8 0.7 1.4 1.7 1.9 2.9 0.5 1.2 0.7 2.7 0.7 4.4v1.3h-13.6c0.1 2 0.6 3.5 1.7 4.5 1 1 2.4 1.6 4.1 1.6 1.1 0 2.1-0.2 2.9-0.7 0.8-0.5 1.4-1.2 1.7-2.2l2.9 0.8c-0.4 1.4-1.3 2.6-2.6 3.5-1.4 0.7-3.1 1.2-5 1.2zm-5.7-11.4h10.5q-0.1-2.4-1.5-3.9-1.3-1.5-3.6-1.5c-1.1 0-2 0.3-2.8 0.8-0.8 0.5-1.4 1.2-1.8 2-0.5 0.8-0.8 1.7-0.8 2.6z"/></svg>